<svg width="1312" height="294" viewBox="0 0 1312 294" fill="none" xmlns="http://www.w3.org/2000/svg">
<mask id="path-1-outside-1_14_7" maskUnits="userSpaceOnUse" x="0" y="0" width="1312" height="294" fill="black">
<rect fill="white" width="1312" height="294"/>
<path d="M14 10H1298L1258 150L1298 284H14L54 147L14 10Z"/>
</mask>
<path d="M14 10H1298L1258 150L1298 284H14L54 147L14 10Z" fill="#FFFEFE"/>
<path d="M14 10V0H0.662773L4.40079 12.8027L14 10ZM1298 10L1307.62 12.7472L1311.26 0H1298V10ZM1298 284V294H1311.42L1307.58 281.14L1298 284ZM14 284L4.40079 281.197L0.662773 294H14V284ZM1258 150L1248.38 147.253L1247.58 150.061L1248.42 152.86L1258 150ZM54 147L63.5992 149.803L64.4175 147L63.5992 144.197L54 147ZM14 20H1298V0H14V20ZM1298 274H14V294H1298V274ZM1288.38 7.25279L1248.38 147.253L1267.62 152.747L1307.62 12.7472L1288.38 7.25279ZM1248.42 152.86L1288.42 286.86L1307.58 281.14L1267.58 147.14L1248.42 152.86ZM23.5992 286.803L63.5992 149.803L44.4008 144.197L4.40079 281.197L23.5992 286.803ZM63.5992 144.197L23.5992 7.19731L4.40079 12.8027L44.4008 149.803L63.5992 144.197Z" fill="black" mask="url(#path-1-outside-1_14_7)"/>
</svg>
